<svg width="50" height="48" viewBox="0 0 50 48" fill="none" xmlns="http://www.w3.org/2000/svg">
<g clip-path="url(#clip0_910_21)">
<rect width="49.0213" height="48" rx="17" fill="white"/>
<path fill-rule="evenodd" clip-rule="evenodd" d="M24.5112 0C18.6925 0.00301903 13.0645 2.06391 8.63366 5.81417C4.20282 9.56443 1.25807 14.7595 0.32593 20.4705C-0.606207 26.1814 0.535051 32.0358 3.54566 36.9869C6.55627 41.938 11.2399 45.6628 16.7591 47.4954C17.9767 47.7214 18.4353 46.9668 18.4353 46.3251C18.4353 45.6834 18.411 43.823 18.4028 41.789C11.5842 43.262 10.1433 38.9116 10.1433 38.9116C9.03125 36.0867 7.42399 35.3441 7.42399 35.3441C5.19981 33.8348 7.59041 33.863 7.59041 33.863C10.0541 34.0366 11.3488 36.3773 11.3488 36.3773C13.5324 40.1021 17.0838 39.0246 18.48 38.3951C18.6991 36.8171 19.3364 35.7437 20.0385 35.1343C14.5917 34.5209 8.8689 32.4304 8.8689 23.0919C8.83514 20.67 9.73899 18.3279 11.3934 16.5502C11.1418 15.9367 10.3016 13.4589 11.6329 10.0931C11.6329 10.0931 13.6907 9.43936 18.3744 12.5912C22.3919 11.4988 26.6306 11.4988 30.648 12.5912C35.3277 9.43936 37.3814 10.0931 37.3814 10.0931C38.7168 13.4508 37.8766 15.9287 37.625 16.5502C39.2846 18.3282 40.1904 20.6744 40.1535 23.1C40.1535 32.4586 34.4186 34.5209 28.9636 35.1222C29.8403 35.8809 30.6237 37.3619 30.6237 39.638C30.6237 42.8988 30.5953 45.522 30.5953 46.3251C30.5953 46.9748 31.0376 47.7335 32.2796 47.4954C37.7994 45.6626 42.4835 41.9371 45.4941 36.9852C48.5046 32.0333 49.6453 26.178 48.7121 20.4665C47.7789 14.755 44.8327 9.55987 40.4004 5.81026C35.9681 2.06064 30.3388 0.00110542 24.5193 0H24.5112Z" fill="#191717"/>
<path d="M9.28225 34.993C9.22949 35.1141 9.03467 35.1504 8.87638 35.0657C8.71809 34.9809 8.60039 34.8235 8.65722 34.6984C8.71404 34.5733 8.9048 34.541 9.06309 34.6258C9.22138 34.7105 9.34313 34.872 9.28225 34.993Z" fill="#191717"/>
<path d="M10.2767 36.0948C10.1927 36.1369 10.0965 36.1486 10.0047 36.128C9.91289 36.1074 9.83115 36.0557 9.77345 35.9818C9.61516 35.8123 9.58267 35.5782 9.70443 35.4733C9.82619 35.3683 10.0454 35.4168 10.2037 35.5863C10.362 35.7558 10.3985 35.9898 10.2767 36.0948Z" fill="#191717"/>
<path d="M11.2427 37.4951C11.0925 37.6 10.8368 37.4951 10.6948 37.2853C10.6555 37.2476 10.6243 37.2025 10.6029 37.1526C10.5816 37.1026 10.5706 37.049 10.5706 36.9947C10.5706 36.9405 10.5816 36.8868 10.6029 36.8368C10.6243 36.7869 10.6555 36.7418 10.6948 36.7041C10.8449 36.6033 11.1007 36.7041 11.2427 36.91C11.3848 37.1158 11.3888 37.3902 11.2427 37.4951Z" fill="#191717"/>
<path d="M12.5536 38.8511C12.4197 39.0004 12.1477 38.96 11.9245 38.7582C11.7013 38.5565 11.6485 38.282 11.7824 38.1368C11.9164 37.9915 12.1883 38.0318 12.4196 38.2296C12.651 38.4273 12.6956 38.7058 12.5536 38.8511Z" fill="#191717"/>
<path d="M14.3922 39.6421C14.3313 39.8317 14.0553 39.9165 13.7793 39.8358C13.5033 39.7551 13.3207 39.5291 13.3735 39.3354C13.4262 39.1416 13.7063 39.0529 13.9863 39.1416C14.2664 39.2304 14.445 39.4443 14.3922 39.6421Z" fill="#191717"/>
<path d="M16.3973 39.7793C16.3973 39.977 16.17 40.1465 15.8778 40.1505C15.5855 40.1546 15.3461 39.9932 15.3461 39.7954C15.3461 39.5977 15.5733 39.4282 15.8656 39.4241C16.1578 39.4201 16.3973 39.5775 16.3973 39.7793Z" fill="#191717"/>
<path d="M18.2643 39.4685C18.3008 39.6663 18.0978 39.8721 17.8056 39.9205C17.5134 39.9689 17.2577 39.8519 17.2212 39.6582C17.1846 39.4645 17.3957 39.2546 17.6798 39.2022C17.9639 39.1497 18.2277 39.2708 18.2643 39.4685Z" fill="#191717"/>
</g>
<defs>
<clipPath id="clip0_910_21">
<rect width="49.0213" height="48" rx="17" fill="white"/>
</clipPath>
</defs>
</svg>
